<?xml version="1.0" encoding="UTF-8" standalone="no"?>
<!-- Created with Inkscape (http://www.inkscape.org/) -->

<svg
   xmlns:dc="http://purl.org/dc/elements/1.1/"
   xmlns:cc="http://creativecommons.org/ns#"
   xmlns:rdf="http://www.w3.org/1999/02/22-rdf-syntax-ns#"
   xmlns:svg="http://www.w3.org/2000/svg"
   xmlns="http://www.w3.org/2000/svg"
   xmlns:sodipodi="http://sodipodi.sourceforge.net/DTD/sodipodi-0.dtd"
   xmlns:inkscape="http://www.inkscape.org/namespaces/inkscape"
   width="535.52856"
   height="261.31598"
   id="svg2"
   version="1.1"
   inkscape:version="0.48.4 r9939"
   sodipodi:docname="CBSSportsRadNEW.svg">
  <defs
     id="defs4" />
  <sodipodi:namedview
     id="base"
     pagecolor="#ffffff"
     bordercolor="#666666"
     borderopacity="1.0"
     inkscape:pageopacity="0.0"
     inkscape:pageshadow="2"
     inkscape:zoom="0.7"
     inkscape:cx="705.31686"
     inkscape:cy="28.836936"
     inkscape:document-units="px"
     inkscape:current-layer="layer1"
     showgrid="false"
     inkscape:window-width="1366"
     inkscape:window-height="706"
     inkscape:window-x="-8"
     inkscape:window-y="-8"
     inkscape:window-maximized="1"
     fit-margin-top="0"
     fit-margin-left="0"
     fit-margin-right="0"
     fit-margin-bottom="0" />
  <metadata
     id="metadata7">
    <rdf:RDF>
      <cc:Work
         rdf:about="">
        <dc:format>image/svg+xml</dc:format>
        <dc:type
           rdf:resource="http://purl.org/dc/dcmitype/StillImage" />
        <dc:title></dc:title>
      </cc:Work>
    </rdf:RDF>
  </metadata>
  <g
     inkscape:label="Layer 1"
     inkscape:groupmode="layer"
     id="layer1"
     transform="translate(-30.851698,-346.68343)">
    <g
       id="g10"
       transform="matrix(1.3333333,0,0,-1.3333333,26.437631,900.89808)">
      <g
         id="g12"
         transform="scale(0.1,0.1)">
        <path
           d="m 2999.68,3829.95 112.28,0 c 0,0 38.66,1.84 47.86,62.58 7.03,46.4 -38.66,57.06 -38.66,57.06 l -101.23,0 -20.25,-119.64 z m -49.7,-291.82 129.32,0 c 0,0 42.61,2.03 52.76,69 7.75,51.15 -42.61,62.91 -42.61,62.91 l -117.15,0 -22.32,-131.91 z m -226.41,608.42 458.34,0 c 0,0 226.41,-29.45 195.11,-242.98 -20,-136.53 -115.96,-160.14 -115.96,-160.14 0,0 117.93,-47.31 77.31,-224.56 -40.49,-176.71 -209.84,-169.35 -209.84,-169.35 l -447.3,0 108.61,600.07 -99.41,0 33.14,196.96"
           style="fill:#1a468e;fill-opacity:1;fill-rule:nonzero;stroke:none"
           id="path14"
           inkscape:connector-curvature="0" />
        <path
           d="m 2046.25,2817.86 c -36.74,-107.46 -122.4,-169.09 -191.32,-137.65 -68.91,31.45 -95,144.05 -58.26,251.5 36.74,107.47 122.4,169.09 191.31,137.65 68.92,-31.44 95,-144.04 58.27,-251.5 z m -39.89,468.16 c -202.82,28.39 -405.26,-132.72 -452.15,-359.83 -46.9,-227.11 79.52,-434.24 282.34,-462.63 202.83,-28.39 405.27,132.71 452.16,359.82 46.89,227.12 -79.52,434.25 -282.35,462.64"
           style="fill:#1a468e;fill-opacity:1;fill-rule:nonzero;stroke:none"
           id="path16"
           inkscape:connector-curvature="0" />
        <path
           d="m 1232.59,3070.65 87.43,0 c 0,0 50.62,-10.12 35.89,-91.11 -15.82,-87.01 -64.42,-82.84 -64.42,-82.84 l -89.28,0 30.38,173.95 z m -314.766,-0.92 95.716,0 -106.763,-589.03 222.723,0 40.5,250.34 191.44,0 c 0,0 198.53,1.15 224.56,254.01 25.77,250.34 -230.09,281.63 -230.09,281.63 l -403.113,0 -34.973,-196.95"
           style="fill:#1a468e;fill-opacity:1;fill-rule:nonzero;stroke:none"
           id="path18"
           inkscape:connector-curvature="0" />
        <path
           d="m 1897.72,3745.49 c 0,-227.05 -184.06,-411.11 -411.11,-411.11 -227.05,0 -411.12,184.06 -411.12,411.11 0,227.05 184.07,411.12 411.12,411.12 227.05,0 411.11,-184.07 411.11,-411.12 z m -799.23,-10.67 c 84.6,-175.64 294.61,-272.32 488.58,-222.06 128.94,33.41 234.97,121.42 289.91,239.3 -69.01,129.16 -201.03,218.57 -347.64,232.17 -179.8,16.68 -355.71,-87.56 -430.85,-249.41 z m 388.12,226.92 c -119.43,0 -216.25,-96.82 -216.25,-216.25 0,-119.43 96.82,-216.25 216.25,-216.25 119.43,0 216.24,96.82 216.24,216.25 0,119.43 -96.81,216.25 -216.24,216.25"
           style="fill:#1a468e;fill-opacity:1;fill-rule:nonzero;stroke:none"
           id="path20"
           inkscape:connector-curvature="0" />
        <path
           d="m 2590.55,3069.73 101.24,0 c 0,0 42.11,-14.7 40.98,-55.22 -1.84,-66.27 -51.1,-80.99 -51.1,-80.99 l -115.05,0 23.93,136.21 z m -315.84,0.92 97.55,0 -104.92,-589.03 220.89,0 46.02,261.38 88.35,0 53.38,-261.38 226.41,0 -77.31,309.24 c 0,0 148.56,58.97 143.58,246.66 -5.53,208 -228.25,230.09 -228.25,230.09 l -430.73,0 -34.97,-196.96"
           style="fill:#1a468e;fill-opacity:1;fill-rule:nonzero;stroke:none"
           id="path22"
           inkscape:connector-curvature="0" />
        <path
           d="m 4030.48,4146.55 -382.87,0 c 0,0 -220.88,-1.84 -233.77,-215.37 -11.09,-183.81 106.76,-198.79 213.52,-254.01 106.76,-55.22 122.1,-63.83 116.89,-100.32 -1.82,-12.77 -18.08,-33.12 -53.38,-33.12 -49.98,0 -124.19,0.13 -124.19,0.13 l 15.59,81.77 -188.68,0 -55.22,-277.95 393.92,0 c 0,0 250.01,18.41 255.85,222.73 5.04,176.17 -102.69,225.11 -191.02,261.54 -26.96,11.12 -92.95,43.57 -106.34,51.07 -20.98,11.75 -38.3,21.6 -31.48,47.51 2.7,10.23 5.46,19.66 50.45,19.66 19.77,0 95.11,-0.2 95.11,-0.2 l -15.51,-68.5 196.95,0 44.18,265.06"
           style="fill:#1a468e;fill-opacity:1;fill-rule:nonzero;stroke:none"
           id="path24"
           inkscape:connector-curvature="0" />
        <path
           d="m 4049.57,3276.64 -382.87,0 c 0,0 -220.89,-1.84 -233.77,-215.36 -11.09,-183.82 106.76,-198.8 213.52,-254.02 106.76,-55.22 122.1,-63.83 116.89,-100.32 -1.82,-12.76 -18.08,-33.12 -53.38,-33.12 -49.98,0 -124.19,0.13 -124.19,0.13 l 15.59,81.77 -188.68,0 -55.22,-277.95 393.92,0 c 0,0 250.01,18.41 255.85,222.73 5.04,176.17 -102.69,225.11 -191.02,261.54 -26.96,11.12 -92.95,43.57 -106.34,51.07 -20.98,11.75 -38.3,21.6 -31.48,47.51 2.7,10.23 5.46,19.66 50.45,19.66 19.77,0 95.11,-0.2 95.11,-0.2 l -15.51,-68.5 196.95,0 44.18,265.06"
           style="fill:#1a468e;fill-opacity:1;fill-rule:nonzero;stroke:none"
           id="path26"
           inkscape:connector-curvature="0" />
        <path
           d="m 2683.07,4146.55 -353.42,0 c 0,0 -320.28,5.52 -382.86,-388.39 -35.59,-223.97 81.19,-330.58 163.95,-377 42.06,-23.6 101.9,-31.64 101.9,-31.64 l 326.86,0 57.06,307.4 -193.27,0 -20.25,-110.44 -108.61,0 c 0,0 -113.29,20.47 -73.63,215.36 42.34,208 161.99,187.75 161.99,187.75 l 92.03,0 -16.56,-103.08 189.59,0 55.22,300.04"
           style="fill:#1a468e;fill-opacity:1;fill-rule:nonzero;stroke:none"
           id="path28"
           inkscape:connector-curvature="0" />
        <path
           d="m 2942.61,3266.68 576.15,0 -36.81,-196.95 -165.67,0 -104.92,-589.03 -219.04,0 104.92,589.03 -187.76,0 33.13,196.95"
           style="fill:#1a468e;fill-opacity:1;fill-rule:nonzero;stroke:none"
           id="path38"
           inkscape:connector-curvature="0" />
        <path
           d="m 3936.68,2388.18 -3043.657,0 c -20.843,-63.98 -58.476,-119.93 -109.964,-161.27 -14.598,-11.73 -28.508,-21.13 -41.563,-28.82 l 3161.074,-1.35 34.11,191.44"
           style="fill:#1a468e;fill-opacity:1;fill-rule:nonzero;stroke:none"
           id="path40"
           inkscape:connector-curvature="0" />
        <path
           d="m 908.438,3268.07 c 0,0 -456.61,0.87 -465.383,0 -8.778,-0.86 -285.129,-20.24 -312.25,-283.98 -21.895,-212.9 103.316,-253.27 245.918,-327.04 142.601,-73.75 239.543,-128.94 221.785,-208.25 -9.617,-42.96 -53,-59.51 -100.16,-59.58 -66.118,-0.1 -209.289,-0.35 -209.289,-0.35 l 18.277,103.61 -221.9805,0 -52.25,-293.3 c 0,0 406.9175,0.34 540.2465,0.09 12.66,-0.02 59.66,4.83 73.628,8.51 25.907,6.82 62.93,17.48 109.082,54.54 58.973,47.35 112.399,130.27 112.391,247.24 -0.008,256 -321.379,338.99 -397.019,383.58 -26.563,15.66 -120.786,60.92 -85.332,141.82 10.777,24.6 33.738,42.23 110.894,42.23 42.727,0 155.348,-0.56 155.348,-0.56 l -19.039,-109.22 221.644,0 53.489,300.66"
           style="fill:#1a468e;fill-opacity:1;fill-rule:nonzero;stroke:none"
           id="path42"
           inkscape:connector-curvature="0" />
      </g>
    </g>
  </g>
</svg>
