<?xml version="1.0" encoding="utf-8"?>
<!-- Generator: Adobe Illustrator 24.3.0, SVG Export Plug-In . SVG Version: 6.00 Build 0)  -->
<svg version="1.1" id="katman_1" xmlns="http://www.w3.org/2000/svg" xmlns:xlink="http://www.w3.org/1999/xlink" x="0px" y="0px"
	 viewBox="0 0 748.1 414.1" style="enable-background:new 0 0 748.1 414.1;" xml:space="preserve">
<style type="text/css">
	.st0{fill-rule:evenodd;clip-rule:evenodd;}
	.st1{fill-rule:evenodd;clip-rule:evenodd;fill:#FFFFFF;}
</style>
<polygon class="st0" points="0,414.1 80.2,0 748.1,0 667.9,414.1 0,414.1 "/>
<path class="st1" d="M495.7,56.9l-7.4,40.5h-80.6l-23.9,38.4h97.5l-9.7,45.3l61.3-62.5L495.7,56.9L495.7,56.9z M142.3,56.9h30.3
	h17.7h20.1l11.7,52.5l31.2-52.5h20.1h19h29.7l-24.1,125.7l79.7-125.7H392h41h62.7h0h60.3l18.4,36.2l30.2-36.2h9.6h5.4h46.1
	L605,120.2l39.2,62.2l-1.2,4.8h-59.6l-18.8-37h-1l-31.6,37h-61.7h-4.7h-50.8l4.9-15.8h-10.3h-26.1h-19.1l-9.5,15.8h-2.9h-17.1h-37.7
	h-2.1h-52.1l18.4-78.5l-28.7,47.7h0h-37.7H194l0.5-0.8l-11.1-49.8l-11.4,81.5h-54.9L142.3,56.9L142.3,56.9z"/>
<path class="st1" d="M129.9,219.5h37.6l0,0h23.1l-3.1,16.5h-23.5c0,0,0,0,0,0h-30.8c-3.9,0-7.2,2.8-7.9,6.6l-3.2,18
	c-0.5,2.8,0.6,5.5,2.6,7.3l1.6,1L161,283c9.9,2.4,16.2,12.3,14.1,22.3c-1.7,8.7-3.5,17.3-5.2,26.1c-2.1,10.3-11.1,17.6-21.7,17.6
	H85.7l3.1-16.5h57.6c2.4,0,4.4-1.7,4.9-4l4.7-22.3c0.7-3.3-1.1-6.6-4.2-7.9L114.5,282c-7.6-2.6-14-13.4-12.3-21l5-23.2
	C109.6,227.1,118.9,219.5,129.9,219.5L129.9,219.5z"/>
<path class="st1" d="M233.4,235l-8.5,44h48.2c2.9,0,5.3-2,5.9-4.9l6.4-33.2c0.6-3.1-1.8-6-4.9-6h-47.1V235L233.4,235z M217.7,219
	h72.1c9.8,0,17.1,8.9,15.2,18.6l-7.5,38.6c-2.2,11.1-11.8,19.1-23.1,19.1h-52.1l-10.4,53.9h-19.5L217.7,219L217.7,219L217.7,219
	L217.7,219z"/>
<path class="st1" d="M350.7,235.2c-3.8,0-7.1,2.7-8,6.4l-16.9,85c-0.7,3.7,2.1,7.2,5.9,7.2H372c3.8,0,7.1-2.7,7.9-6.4l17.2-86.2
	c0.6-3.1-1.7-6-4.9-6H350.7L350.7,235.2L350.7,235.2z M347.3,219h53.9c9.7,0,17.1,8.9,15.2,18.4l-17.8,93.1
	c-2.1,10.8-11.6,18.7-22.6,18.7h-54.5c-9.4,0-16.5-8.6-14.7-17.8l17.9-93.7C326.8,226.8,336.2,219,347.3,219L347.3,219z"/>
<path class="st1" d="M465.4,235.5L465.4,235.5l-8,41.7h2.1H503h2.1c2.7,0,5-1.9,5.6-4.7l6.1-31.3c0.6-2.9-1.7-5.7-4.6-5.7h-2.1
	h-42.4H465.4L465.4,235.5z M449.4,219h0.6h18.9h51.2c10.4,0,18.2,9.5,16.2,19.7l-6.7,34.1c-2,10.3-10.1,18.1-20.1,19.8l-2.2,0.2
	l11.4,56.4h-20.1l-9.8-56.2h-34L444,349.2h-19.5L449.4,219L449.4,219z"/>
<polygon class="st1" points="547,219 638.3,219 635.1,236.1 599,236.1 577.6,349.2 558.2,349.2 579.7,236.1 543.8,236.1 547,219 "/>
</svg>
