<?xml version="1.0" encoding="utf-8"?>
<!-- Generator: Adobe Illustrator 23.0.1, SVG Export Plug-In . SVG Version: 6.00 Build 0)  -->
<svg version="1.1" id="Livello_1" xmlns="http://www.w3.org/2000/svg" xmlns:xlink="http://www.w3.org/1999/xlink" x="0px" y="0px"
	 viewBox="0 0 700 165.498" enable-background="new 0 0 700 165.498" xml:space="preserve">
<g>
	
		<linearGradient id="SVGID_1_" gradientUnits="userSpaceOnUse" x1="529.6637" y1="278.1814" x2="529.6637" y2="98.4647" gradientTransform="matrix(1 0 0 -1 -47.5 286.4977)">
		<stop  offset="0.2" style="stop-color:#FE0000"/>
		<stop  offset="0.53" style="stop-color:#FA0000"/>
		<stop  offset="0.6" style="stop-color:#F90000"/>
		<stop  offset="0.67" style="stop-color:#F30000"/>
		<stop  offset="0.76" style="stop-color:#E50000"/>
		<stop  offset="0.85" style="stop-color:#CC0000"/>
		<stop  offset="0.95" style="stop-color:#AC0000"/>
	</linearGradient>
	<path fill="url(#SVGID_1_)" d="M275.361,0h413.606C695.06,0,700,4.94,700,11.033v143.431c0,6.093-4.94,11.033-11.033,11.033
		H275.361c-6.093,0-11.033-4.94-11.033-11.033V11.033C264.327,4.94,269.267,0,275.361,0z"/>
	<g>
		<path fill="#FFFFFF" d="M296.075,118.91c-0.979-6.827,1.131-10.399,5.034-10.399c3.903,0,12.84,4.068,25.5,4.068
			c13.323,0,18.356-4.717,18.356-10.881c0-4.386-1.945-8.289-13.971-11.53l-13.805-3.737c-15.267-4.055-21.28-11.695-21.28-21.115
			c0-11.695,9.254-22.094,30.217-22.094c9.42,0,21.115,2.11,28.273,4.868c1.296,6.661-0.814,10.233-4.868,10.233
			c-3.572,0-11.695-3.406-23.225-3.406c-12.343,0-16.895,4.22-16.895,9.751c0,3.903,1.793,7.475,12.84,10.564l14.136,3.903
			c15.764,4.386,22.094,11.695,22.094,22.094c0,12.178-9.42,23.073-32.162,23.073c-10.068,0-22.577-2.441-30.217-5.365
			L296.075,118.91z"/>
		<path fill="#FFFFFF" d="M452.043,83.659c0,25.5-17.874,40.616-37.527,40.616c-11.695,0-21.28-5.517-26.962-13.323v32.81
			c0,3.089-1.779,5.034-6.978,5.034c-2.593,0-5.034-0.331-6.33-0.648V44.671c1.296-0.331,3.737-0.648,6.33-0.648
			c5.199,0,6.978,1.945,6.978,5.034v7.475c5.682-7.792,15.267-13.323,26.962-13.323C434.169,43.209,452.043,58.324,452.043,83.659z
			 M438.569,83.659c0-17.06-11.378-28.755-26.645-28.755c-10.399,0-19.984,6.013-24.37,14.784v28.107
			c4.386,8.771,13.971,14.784,24.37,14.784C427.191,112.58,438.569,100.885,438.569,83.659z"/>
		<path fill="#FFFFFF" d="M464.524,83.659c0-23.239,17.06-40.45,39.968-40.45c22.908,0,40.133,17.226,40.133,40.45
			s-17.06,40.616-40.133,40.616S464.524,106.732,464.524,83.659z M531.137,83.659c0-17.874-12.026-28.755-26.645-28.755
			s-26.48,10.881-26.48,28.755s12.026,28.921,26.48,28.921S531.137,101.367,531.137,83.659z"/>
		<path fill="#FFFFFF" d="M609.031,50.518c0,5.365-2.276,6.496-7.792,6.496c-11.212,0-20.632,5.199-26.48,17.377v44.022
			c0,3.255-1.793,5.034-7.144,5.034c-2.276,0-4.868-0.331-6.179-0.648V44.657c1.296-0.331,3.903-0.648,6.179-0.648
			c5.365,0,7.144,1.945,7.144,5.034v10.881c7.641-11.53,19.17-17.377,33.624-15.433c0.166,1.131,0.648,3.572,0.648,6.013V50.518z"/>
		<path fill="#FFFFFF" d="M667.452,118.91c-6.827,3.255-14.619,5.365-22.425,5.365c-15.433,0-24.701-9.102-24.701-24.204V32.975
			c0-3.406,1.945-5.682,7.144-5.682c2.276,0,4.868,0.483,6.179,0.814v16.895h30.383c0.166,1.131,0.483,3.406,0.483,5.365
			c0,4.717-1.945,6.33-4.868,6.33h-25.997v42.409c0,9.102,4.22,13.488,12.84,13.488c7.792,0,12.178-3.406,15.915-3.406
			c3.738,0,5.848,3.255,5.034,9.751L667.452,118.91z"/>
	</g>
	
		<linearGradient id="SVGID_2_" gradientUnits="userSpaceOnUse" x1="167.2789" y1="274.899" x2="167.2789" y2="130.723" gradientTransform="matrix(1 0 0 -1 -47.5 286.4977)">
		<stop  offset="0.05" style="stop-color:#0F33D5"/>
		<stop  offset="0.29" style="stop-color:#0C28C7"/>
		<stop  offset="0.74" style="stop-color:#040EA2"/>
		<stop  offset="0.95" style="stop-color:#00008F"/>
	</linearGradient>
	<path fill="url(#SVGID_2_)" d="M165.346,153.596c1.972,1.007,5.972,2.22,11.006,2.345c8.647,0.193,13.35-3.117,16.853-10.854
		l46.353-103.215c-1.903-1.021-6.165-2.165-9.599-2.22c-5.972-0.124-13.985,1.076-19.074,13.267L195.88,88.279l-29.445-47.87
		c-1.903-0.579-6.551-1.393-9.916-1.393c-10.426,0-16.219,3.806-22.259,10.344l-28.617,31.238l23.018,36.189
		c4.262,6.606,9.861,9.971,18.949,9.971c5.972,0,10.937-1.393,13.226-2.469l-27.721-41.705l19.653-20.825l32.244,50.532
		l-19.653,41.333L165.346,153.596z M104.526,114.552c0,7.613-2.993,11.999-17.874,11.999c-1.972,0-3.682-0.124-5.337-0.386V25.238
		c0-7.682,2.607-15.681,17.612-15.681c1.903,0,3.82,0.193,5.599,0.579v104.429V114.552z M73.826,99.312
		c0,14.219-9.282,24.563-28.176,26.604c-13.667,1.462-33.444-0.248-42.864-1.338c-0.317-1.517-0.565-3.42-0.565-4.951
		c0-12.385,6.675-15.24,12.978-15.24s16.853,1.145,24.48,1.145c8.454,0,11.006-2.855,11.006-5.586c0-3.558-3.365-5.02-9.916-6.289
		l-17.929-3.434C7.944,87.383,0,77.094,0,66.171c0-13.267,9.406-24.383,27.914-26.411c13.985-1.531,31.031,0.193,40.381,1.338
		c0.317,1.586,0.51,3.117,0.51,4.758c0,12.371-6.551,15.046-12.84,15.046c-4.827,0-12.343-0.883-20.922-0.883
		s-12.343,2.414-12.343,5.337c0,3.117,3.434,4.386,8.909,5.337l17.101,3.172c17.557,3.241,25.114,13.198,25.114,25.459V99.312z"/>
</g>
</svg>
