<svg xmlns="http://www.w3.org/2000/svg" xml:space="preserve" viewBox="0 0 2786.9999 873.46027">
  <path fill="#ff28ff" d="M282.81954 306.32145h85.60591c21.6015 0 32.27085 5.80011 42.97158 23.60134l88.47168 137.70951h3.24988V306.32145h350.34036C797.86489 128.62081 632.34368 0 436.63016 0 240.91664 0 75.424004 128.52946 19.801368 306.32145Z"/>
  <path fill="#ff28ff" d="M868.05996 369.62507h-95.80683v258.01822h-86.90638V369.62507h-99.60629v258.01822h-57.9038c-21.60148 0-32.08562-6.36478-43.18638-24.066L372.24251 435.30861h-1.84394v192.33478h-84.51683V369.62507h-99.04657v258.01822H98.329064V369.62507c-31.035478-.03318-62.093228.03318-93.128705 0C1.700117 391.52659 0 413.82859 0 436.63017c0 241.11665 195.5135 436.8301 436.63016 436.8301 241.11665 0 436.63016-196.09365 436.63016-436.8301 0-22.80158-1.80013-45.10358-5.20036-67.0051Z"/>
  <path fill="#14232d" d="M1252.9077 531.62922v.89863c0 27.28741-8.8472 49.38573-24.4533 65.80133-11.5931 12.19443-26.8037 21.29341-45.1696 26.93812-14.4183 4.43141-30.3808 6.75893-48.4645 6.75893-15.5441 0-31.2427-1.74938-46.3949-5.21059-32.3976-7.40048-63.412-22.741-89.7004-46.14326l26.5715-31.79303c2.5803-3.21838 5.1812-5.40699 7.9548-6.91903 3.4351-1.87271 7.0452-2.58091 10.497-2.70561 4.6981 0 9.1763 1.16108 12.7748 3.55741.2998.19971.5997.3994.8995.59909 23.9897 16.37498 49.8867 26.25987 78.4973 26.25987 28.745 0 46.7822-11.23994 46.7822-30.25376v-.89863c0-18.1152-11.4448-27.16114-64.8215-40.83757-65.2319-16.5662-106.2561-34.74511-106.2561-98.29993v-.69844c0-58.08657 46.4812-96.86913 112.2528-96.86913 19.1003 0 37.0057 2.41906 53.7273 7.05117 24.4074 6.7612 46.2786 18.2667 65.6755 33.79098l-21.9837 31.98606c-1.4347 2.17731-2.96 4.0768-4.3668 5.67688-4.1703 4.74328-10.7488 7.16102-15.8451 7.15864-7.6081.16007-10.3136-1.95153-15.6915-4.75997-21.1909-11.68214-42.0238-18.47611-62.415-18.47611-16.074 0-27.4889 4.412-34.1598 11.15724-4.6125 4.66395-6.9425 10.46444-6.9425 16.74339v.89862c0 21.0678 13.5142 28.03977 69.1902 42.21809 65.4421 17.0706 101.8418 40.45608 101.8418 96.37061Z"/>
  <path fill="#14232d" d="M1306.5533 306.2154v321.50943h70.847v-96.5081h53.8995c41.3045 0 77.7772-12.64171 101.5339-37.45701 17.6943-18.48288 28.21-43.71913 28.21-75.51531v-.89841c0-34.20646-12.553-62.95618-35.467-82.6391-21.0295-18.06413-50.6906-28.4915-87.3802-28.4915Zm70.847 63.52106h55.0585c23.3471 0 39.9179 7.98341 48.6348 20.47384 5.5774 7.99174 8.313 17.88807 8.313 28.52432 0 15.32376-5.6162 28.68727-18.2677 37.97318-9.4133 6.90923-21.3755 11.02459-39.3301 11.02459h-54.4085Z"/>
  <path fill="#14232d" d="M1749.5153 301.77221c-91.2185.00015-165.1151 73.94291-165.1152 165.15591.0001 91.213 73.8967 165.15576 165.1152 165.15591 91.2184-.00021 165.1655-73.94295 165.1656-165.15591-.0001-91.21296-73.9472-165.1557-165.1656-165.15591Zm.0214 66.89788c54.2736-.00017 98.2714 43.9914 98.2717 98.25803.0007 54.2674-43.9973 98.26016-98.2717 98.25999-54.2744.00011-98.3029-43.94233-98.3022-98.20969.0003-54.2666 44.0285-98.30844 98.3022-98.30833Z"/>
  <path fill="#14232d" d="M1960.3881 306.2154v321.50943h70.847v-102.8438h55.4999l56.6211 84.58167c4.1518 6.66317 8.6937 11.40692 15.2934 14.51636 3.724 2.04754 8.6362 3.74577 18.5422 3.74577h61.188l-78.6787-114.95858c16.0472-5.7344 30.4255-14.52969 41.9359-26.54588 16.7029-17.43674 27.042-41.57621 27.042-72.8586 0-36.47576-13.0083-63.215-34.4733-80.84853-21.636-17.77395-51.7635-26.29784-86.0515-26.29784Zm70.847 63.52106h70.3157c18.7969 0 35.1071 4.83077 45.2054 16.27478 6.3535 7.20023 10.275 17.36524 10.275 29.87583 0 11.78061-3.0827 21.49066-10.2984 29.52233-10.1394 11.28583-26.3961 15.82362-43.682 15.82362h-71.8157Z"/>
  <path fill="#14232d" d="M2255.1896 306.2154v63.52106h97.8596v257.98837h70.7964V369.73646h74.6455c12.7704 0 23.0518-10.28139 23.0518-23.05187V306.2154Z"/>
  <path fill="#14232d" d="M2787 531.62922v.89863c0 27.28741-8.8478 49.38573-24.4552 65.80133-11.594 12.19443-26.8058 21.29341-45.1733 26.93812-14.4193 4.43141-30.3831 6.75893-48.4682 6.75893-15.5455 0-31.2453-1.74938-46.3987-5.21059-32.4002-7.40048-63.417-22.741-89.7075-46.14326l26.5737-31.79303c2.5804-3.21838 5.1815-5.40699 7.9554-6.91903 3.4352-1.87271 7.0457-2.58091 10.4978-2.70561 4.6985 0 9.1769 1.16108 12.7758 3.55741.2998.19971.5997.3994.8995.59909 23.9917 16.37498 49.8908 26.25987 78.5036 26.25987 28.7472 0 46.786-11.23994 46.786-30.25376v-.89863c0-18.1152-11.4459-27.16114-64.8268-40.83757-65.2371-16.5662-106.2645-34.74511-106.2645-98.29993v-.69844c0-58.08657 46.4849-96.86913 112.2618-96.86913 19.1019 0 37.0086 2.41906 53.7316 7.05117 24.4093 6.7612 46.2821 18.2667 65.6806 33.79098l-21.9853 31.98606c-1.4349 2.17731-2.9603 4.0768-4.3672 5.67688-4.1707 4.74328-10.7496 7.16102-15.8464 7.15864-7.6087.16007-10.3143-1.95153-15.6927-4.75997-21.1926-11.68214-42.0272-18.47611-62.42-18.47611-16.0753 0-27.4912 4.412-34.1625 11.15724-4.6128 4.66395-6.9431 10.46444-6.9431 16.74339v.89862c0 21.0678 13.5152 28.03977 69.1957 42.21809C2750.5974 452.32921 2787 475.71469 2787 531.62922Z"/>
</svg>
