<?xml version="1.0" encoding="UTF-8" standalone="no"?>
<!-- Created with Inkscape (http://www.inkscape.org/) -->

<svg
   xmlns:dc="http://purl.org/dc/elements/1.1/"
   xmlns:cc="http://creativecommons.org/ns#"
   xmlns:rdf="http://www.w3.org/1999/02/22-rdf-syntax-ns#"
   xmlns:svg="http://www.w3.org/2000/svg"
   xmlns="http://www.w3.org/2000/svg"
   xmlns:xlink="http://www.w3.org/1999/xlink"
   xmlns:sodipodi="http://sodipodi.sourceforge.net/DTD/sodipodi-0.dtd"
   xmlns:inkscape="http://www.inkscape.org/namespaces/inkscape"
   width="777"
   height="163"
   id="svg2"
   version="1.1">
  <g
     inkscape:label="Layer 1"
     inkscape:groupmode="layer"
     id="layer1"
     transform="translate(8.272688,-298.26955)">
    <polygon
       style="fill:#213f7d"
       id="polygon27820"
       points="163.607,564.479 163.607,563.127 159.134,563.127 159.134,564.479 160.695,564.479 160.695,569.387 162.045,569.387 162.045,564.479 "
       clip-path="url(#SVGID_3079_)"
       transform="matrix(19.603127,0,0,19.603127,-3127.7967,-10738.585)" />
    <path
       style="fill:#213f7d"
       id="path27822"
       d="m 170.633,568.137 c -1.026,-10e-4 -1.86,-0.838 -1.86,-1.865 0.001,-1.027 0.837,-1.862 1.863,-1.862 0.499,0 0.965,0.196 1.317,0.548 l 0.982,-0.98 c -0.613,-0.613 -1.429,-0.953 -2.298,-0.955 -1.792,-10e-4 -3.25,1.455 -3.254,3.248 0,1.794 1.456,3.255 3.248,3.258 m 0.001,-0.002 c 0.868,0 1.686,-0.339 2.298,-0.951 l -0.981,-0.983 c -0.352,0.352 -0.818,0.545 -1.316,0.544"
       clip-path="url(#SVGID_3079_)"
       transform="matrix(19.603127,0,0,19.603127,-3127.7967,-10738.585)" />
    <path
       style="fill:#213f7d"
       id="path27824"
       d="m 196.564,567.445 c -0.463,-0.173 -1.334,-0.46 -1.334,-1.488 0,-0.87 0.923,-1.486 1.847,-1.486 0.769,0 1.23,0.258 1.662,0.666 l -0.74,0.924 c -0.205,-0.236 -0.563,-0.358 -0.82,-0.358 -0.348,0 -0.615,0.082 -0.615,0.338 0,0.186 0.256,0.259 0.461,0.328 l 0.411,0.154 c 0.596,0.227 1.334,0.463 1.334,1.487 0,0.924 -0.914,1.59 -1.848,1.59 -0.769,0 -1.384,-0.205 -1.847,-0.716 l -0.143,-0.165 0.834,-0.885 0.045,0.05 c 0.213,0.246 0.652,0.488 1.009,0.488 0.358,0 0.616,-0.104 0.616,-0.393 0,-0.227 -0.258,-0.298 -0.462,-0.38 l -0.41,-0.154 z"
       clip-path="url(#SVGID_3079_)"
       transform="matrix(19.603127,0,0,19.603127,-3127.7967,-10738.585)" />
    <path
       style="fill:#213f7d"
       id="path27826"
       d="m 188.483,565.27 c -0.472,-0.473 -1.099,-0.731 -1.765,-0.731 -1.378,0 -2.5,1.12 -2.501,2.497 0,1.378 1.121,2.502 2.498,2.502 1.377,0 2.498,-1.123 2.499,-2.501 0,-0.668 -0.261,-1.296 -0.731,-1.767 m -1.768,2.913 c -0.632,0 -1.146,-0.516 -1.146,-1.147 0,-0.631 0.516,-1.146 1.149,-1.146 0.305,0 0.592,0.119 0.809,0.334 0.217,0.219 0.336,0.506 0.336,0.813 -0.001,0.63 -0.515,1.146 -1.148,1.146"
       clip-path="url(#SVGID_3079_)"
       transform="matrix(19.603127,0,0,19.603127,-3127.7967,-10738.585)" />
    <path
       style="fill:#213f7d"
       id="path27828"
       d="m 177.312,565.815 -0.561,-0.305 c -0.385,-0.205 -0.761,-0.399 -0.761,-0.743 0,-0.348 0.346,-0.45 0.712,-0.45 l 0.031,0.002 c 0.246,0.009 0.486,0.086 0.805,0.302 l 0.953,-0.948 c -0.458,-0.456 -1.114,-0.658 -1.758,-0.658 v 0.003 l -0.133,-0.003 c -0.915,0 -2.035,0.735 -2.035,1.753 0,0.896 0.581,1.396 1.17,1.707 l 0.558,0.306 c 0.458,0.255 0.815,0.457 0.815,0.813 0,0.397 -0.366,0.613 -0.712,0.613 -0.407,0 -0.813,-0.255 -1.068,-0.613 l -0.865,1.071 c 0.509,0.663 1.251,0.866 1.933,0.866 1.098,0 2.136,-0.835 2.136,-1.938 10e-4,-0.801 -0.498,-1.39 -1.22,-1.778"
       clip-path="url(#SVGID_3079_)"
       transform="matrix(19.603127,0,0,19.603127,-3127.7967,-10738.585)" />
    <path
       style="fill:#213f7d"
       id="path27830"
       d="m 183.127,565.27 c -0.472,-0.473 -1.099,-0.731 -1.767,-0.731 -0.558,0 -1.073,0.185 -1.489,0.497 -0.107,-0.183 -0.236,-0.356 -0.389,-0.508 l -0.955,0.954 c 0.215,0.219 0.335,0.506 0.335,0.813 v 0.737 0.004 0.001 4.293 h 1.351 v -2.076 c 0.344,0.179 0.733,0.284 1.146,0.284 1.377,0 2.498,-1.123 2.498,-2.501 0,-0.668 -0.26,-1.296 -0.73,-1.767 m -1.768,2.913 c -0.632,0 -1.145,-0.516 -1.146,-1.147 v -10e-4 c 0.001,-0.632 0.516,-1.146 1.147,-1.146 0.305,0 0.595,0.119 0.811,0.334 0.216,0.219 0.335,0.506 0.335,0.813 0,0.631 -0.513,1.147 -1.147,1.147"
       clip-path="url(#SVGID_3079_)"
       transform="matrix(19.603127,0,0,19.603127,-3127.7967,-10738.585)" />
    <path
       style="fill:#213f7d"
       id="path27832"
       d="m 190.702,565.179 c -0.119,-0.236 -0.275,-0.46 -0.469,-0.651 l -0.956,0.955 c 0.216,0.218 0.335,0.505 0.335,0.812 v 3.093 h 1.351 v -2.145 c 0,-0.307 0.12,-0.595 0.339,-0.813 0.214,-0.217 0.502,-0.337 0.809,-0.337 v -1.35 c -0.512,0 -0.999,0.154 -1.409,0.436"
       clip-path="url(#SVGID_3079_)"
       transform="matrix(19.603127,0,0,19.603127,-3127.7967,-10738.585)" />
    <path
       style="fill:#213f7d"
       id="path27834"
       d="m 194.86,566.093 v -1.35 h -0.983 v -1.445 h -1.352 v 4.467 c 0,0.669 0.26,1.299 0.731,1.771 l 0.957,-0.956 c -0.218,-0.216 -0.336,-0.507 -0.336,-0.814 v -1.672 h 0.983 z"
       clip-path="url(#SVGID_3079_)"
       transform="matrix(19.603127,0,0,19.603127,-3127.7967,-10738.585)" />
    <path
       style="fill:#213f7d"
       id="path27836"
       d="m 166.951,565.659 h -1.329 v 1.679 c 0,0.477 -0.294,0.784 -0.75,0.784 -0.454,0 -0.749,-0.308 -0.749,-0.784 v -1.679 h -1.328 v 1.679 c 0,0.595 0.204,1.108 0.594,1.479 0.374,0.357 0.901,0.553 1.483,0.553 0.264,0 0.516,-0.041 0.75,-0.119 v 0.053 c 0,0.476 -0.294,0.832 -0.75,0.832 h -0.553 l -1.172,1.193 h 1.664 c 0.177,-10e-4 0.236,-0.003 0.236,-0.003 0.511,-0.034 0.972,-0.226 1.308,-0.547 0.356,-0.336 0.562,-0.793 0.596,-1.318 v -1.923 -1.879 z"
       clip-path="url(#SVGID_3079_)"
       transform="matrix(19.603127,0,0,19.603127,-3127.7967,-10738.585)" />
  </g>
</svg>
